# xmcd
#
# Track frame offsets:
#	150
#	12106
#	23717
#	41337
#	55725
#	67889
#	82144
#	92232
#	107800
#	117761
#	132733
#	147700
#
# Disc length: 2161 seconds
#
# Revision: 1
# Processed by: cddbd v1.5.2PL0 Copyright (c) Steve Scherf et al.
# Submitted via: audiograbber 1.83.01
#
DISCID=a4086f0c
DTITLE=SUNNY SIDE - Modrá struna
DYEAR=2007
DGENRE=Bluegrass
TTITLE0=DARK AS THE NIGHT
TTITLE1=CUCKOO BIRD
TTITLE2=ROCK SALT AND NAILS
TTITLE3=SOMEONE TOOK MY PLACE WITH YOU
TTITLE4=LOVE PLEASE COME HOME
TTITLE5=I WONDER WHERE YOU ARE TONIGHT
TTITLE6=TENNESSEE WALTZ
TTITLE7=CASH ON THE BARRELHEAD
TTITLE8=ME AND MY OLD BANJO
TTITLE9=BLUE MOON OF KEMTUCKY
TTITLE10=IN THE JAILHOUSE NOW
TTITLE11=KEEP ON THE SUNNY SIDE
EXTD=
EXTT0=
EXTT1=
EXTT2=
EXTT3=
EXTT4=
EXTT5=
EXTT6=
EXTT7=
EXTT8=
EXTT9=
EXTT10=
EXTT11=
PLAYORDER=
